<?xml version="1.0" encoding="utf-8"?>
<!-- Generator: Adobe Illustrator 15.1.0, SVG Export Plug-In . SVG Version: 6.00 Build 0)  -->
<!DOCTYPE svg PUBLIC "-//W3C//DTD SVG 1.1//EN" "http://www.w3.org/Graphics/SVG/1.1/DTD/svg11.dtd">
<svg version="1.1" id="Layer_1" xmlns="http://www.w3.org/2000/svg" xmlns:xlink="http://www.w3.org/1999/xlink" x="0px" y="0px"
	 width="75.903px" height="100px" viewBox="0 0 75.903 100" enable-background="new 0 0 75.903 100" xml:space="preserve">
<path id="path4277" fill="#010101" d="M12.904,0v5.601v60.632H0v11.193h12.904v16.974V100h5.601h29.602
	c0,0,6.713,0.075,13.598-3.368c6.886-3.442,14.199-11.462,14.199-24.429c0-12.261-5.349-20.286-11.359-24.522
	c4.255-4.135,7.66-10.733,7.66-19.885c0-12.655-5.938-20.601-11.975-24.223C54.193-0.049,48.106,0,48.106,0H18.504H12.904z
	 M24.096,11.192h24.01c0,0,3.151,0.052,6.365,1.98s6.539,5.078,6.539,14.624c0,8.997-3.164,11.683-6.342,13.417
	c-2.938,1.604-5.805,1.698-6.239,1.704c-0.246,0.007-0.662,0.007-0.662,0.007H24.096V11.192L24.096,11.192z M48.438,54.102
	c0.005,0,0.01,0,0.017,0c0.05-0.002,4.206-0.15,8.234,1.877c4.053,2.04,8.021,5.375,8.021,16.225c0,9.236-3.791,12.312-8.006,14.419
	c-4.215,2.108-8.598,2.185-8.598,2.185h-24.01V77.426h20.303V66.232H24.096V54.117h24.01v-0.008
	C48.216,54.107,48.329,54.102,48.438,54.102L48.438,54.102z"/>
</svg>
